<?xml version="1.0" encoding="UTF-8" standalone="no"?>
<svg
   xmlns:dc="http://purl.org/dc/elements/1.1/"
   xmlns:cc="http://creativecommons.org/ns#"
   xmlns:rdf="http://www.w3.org/1999/02/22-rdf-syntax-ns#"
   xmlns:svg="http://www.w3.org/2000/svg"
   xmlns="http://www.w3.org/2000/svg"
   xmlns:sodipodi="http://sodipodi.sourceforge.net/DTD/sodipodi-0.dtd"
   xmlns:inkscape="http://www.inkscape.org/namespaces/inkscape"
   version="1.0"
   width="5.968224pt"
   height="8.5039368pt"
   viewBox="0 0 5.968224 8.5039366"
   preserveAspectRatio="xMidYMid meet"
   id="svg10"
   sodipodi:docname="jLEDfish_logo_drawing_1.svg"
   inkscape:version="0.92.3 (2405546, 2018-03-11)">
  <metadata
     id="metadata16">
    <rdf:RDF>
      <cc:Work
         rdf:about="">
        <dc:format>image/svg+xml</dc:format>
        <dc:type
           rdf:resource="http://purl.org/dc/dcmitype/StillImage" />
        <dc:title></dc:title>
      </cc:Work>
    </rdf:RDF>
  </metadata>
  <defs
     id="defs14" />
  <sodipodi:namedview
     pagecolor="#ffffff"
     bordercolor="#666666"
     borderopacity="1"
     objecttolerance="10"
     gridtolerance="10"
     guidetolerance="10"
     inkscape:pageopacity="0"
     inkscape:pageshadow="2"
     inkscape:window-width="3840"
     inkscape:window-height="2066"
     id="namedview12"
     showgrid="false"
     fit-margin-top="0"
     fit-margin-left="0"
     fit-margin-right="0"
     fit-margin-bottom="0"
     inkscape:zoom="50.068509"
     inkscape:cx="1.1462423"
     inkscape:cy="11.425005"
     inkscape:window-x="-11"
     inkscape:window-y="-11"
     inkscape:window-maximized="1"
     inkscape:current-layer="svg10" />
  <g
     transform="matrix(4.8906702e-4,0,0,-4.8906702e-4,-0.00328407,8.8516421)"
     id="g8"
     style="fill:#000000;stroke:none">
    <path
       d="m 4585,18093 c -1044,-24 -1987,-235 -2735,-613 -406,-206 -717,-428 -1016,-725 -242,-240 -403,-455 -544,-728 -175,-337 -259,-617 -279,-935 -40,-610 202,-1034 644,-1127 53,-11 126,-17 215,-17 74,0 149,-4 167,-9 35,-11 102,-79 128,-130 124,-239 162,-806 80,-1173 -41,-179 -77,-274 -253,-676 -165,-376 -209,-558 -199,-814 10,-226 41,-362 178,-786 148,-453 183,-616 183,-850 0,-134 -5,-183 -38,-365 -55,-313 -116,-612 -221,-1085 -104,-468 -125,-584 -125,-708 0,-73 2,-83 17,-80 28,5 59,62 124,226 37,96 70,200 85,271 45,217 102,394 282,868 194,509 255,763 254,1058 0,182 -9,230 -87,475 -174,545 -235,840 -222,1065 13,220 49,339 277,915 193,488 196,497 249,725 83,359 113,623 94,831 -6,66 -10,121 -8,123 8,7 94,-179 118,-254 83,-265 97,-541 56,-1160 -16,-246 -20,-386 -16,-550 5,-231 14,-296 65,-495 64,-248 87,-493 63,-684 -25,-195 -105,-429 -212,-621 -128,-228 -175,-354 -199,-533 -19,-135 -8,-375 24,-522 84,-397 301,-829 621,-1238 168,-214 286,-425 341,-607 25,-85 27,-106 34,-365 4,-151 11,-285 15,-297 11,-35 42,-28 64,14 101,201 107,487 15,806 -45,158 -116,333 -262,653 -130,283 -203,459 -251,601 -176,531 -149,1000 89,1514 160,347 189,440 197,635 8,196 -13,277 -147,559 -79,165 -126,307 -145,432 -19,122 -19,170 0,358 8,83 22,251 31,375 9,124 17,226 18,227 1,1 550,-2595 1220,-5770 670,-3175 1219,-5773 1220,-5774 4,-4 596,124 603,130 3,4 -598,2872 -1337,6372 -738,3501 -1340,6368 -1337,6371 3,3 89,-1 191,-10 102,-9 233,-16 292,-16 h 105 l 48,-102 c 181,-385 282,-875 346,-1668 23,-294 35,-377 62,-465 35,-112 106,-248 207,-400 300,-449 357,-825 265,-1747 -31,-311 -32,-346 -22,-450 20,-190 61,-327 231,-774 158,-412 156,-499 -16,-889 -93,-211 -118,-288 -131,-408 -21,-190 26,-379 143,-572 82,-135 189,-270 387,-486 149,-162 253,-281 275,-314 9,-14 19,-24 21,-21 9,9 -30,123 -69,200 -50,101 -73,134 -228,336 -209,272 -277,388 -334,568 -58,184 -25,310 154,592 161,254 194,359 187,585 -5,166 -22,224 -98,341 -174,266 -250,534 -251,879 -1,236 22,423 97,810 32,160 45,481 26,640 -40,346 -120,564 -327,885 -105,164 -173,288 -201,365 -72,201 -102,648 -73,1095 31,487 30,810 -3,1017 l -13,81 84,17 c 46,9 86,14 89,12 2,-3 0,-14 -6,-26 -23,-41 -61,-230 -70,-344 -22,-269 29,-534 149,-766 87,-168 141,-229 525,-601 226,-218 325,-353 401,-545 55,-138 77,-268 71,-420 -7,-169 -33,-260 -137,-471 -95,-191 -140,-307 -177,-446 -26,-95 -28,-117 -27,-293 0,-178 2,-195 27,-278 36,-117 107,-265 197,-412 166,-272 250,-416 293,-501 64,-127 132,-303 162,-419 24,-88 26,-112 21,-201 -3,-56 -18,-173 -33,-260 -22,-128 -27,-190 -27,-319 0,-148 2,-165 25,-227 36,-92 106,-212 155,-265 34,-36 47,-44 70,-41 27,3 29,6 32,53 2,51 -23,134 -81,271 -54,126 -57,246 -12,437 40,168 48,254 42,440 -4,149 -9,187 -35,287 -41,158 -101,295 -247,565 -183,341 -245,494 -280,699 -37,218 -21,300 146,716 178,447 208,552 216,766 9,223 -28,360 -149,559 -120,196 -205,299 -488,590 -389,401 -421,449 -456,675 -39,258 16,573 146,843 l 33,67 80,25 c 45,13 82,23 83,22 2,-1 21,-76 44,-167 370,-1479 792,-2715 1217,-3564 303,-607 518,-930 1123,-1691 297,-375 376,-477 510,-664 687,-961 1246,-2178 1878,-4091 303,-916 664,-2155 948,-3250 21,-80 39,-147 40,-149 3,-3 595,148 602,154 8,7 -268,1027 -438,1620 -728,2542 -1387,4247 -2107,5450 -255,425 -489,752 -943,1320 -554,693 -774,1023 -1054,1585 -406,815 -781,1910 -1147,3350 -39,151 -72,282 -75,292 -5,17 66,48 304,134 105,38 102,38 102,24 0,-6 22,-38 48,-73 103,-132 166,-262 282,-587 214,-601 383,-898 690,-1214 247,-254 404,-361 855,-585 447,-222 613,-325 786,-489 128,-122 218,-248 272,-384 41,-101 72,-246 117,-535 78,-504 130,-631 352,-858 147,-150 196,-214 253,-330 107,-217 152,-518 126,-845 -7,-80 -34,-300 -61,-490 -58,-408 -70,-529 -70,-712 0,-242 39,-453 118,-636 133,-309 338,-514 602,-602 217,-73 510,-134 533,-111 21,22 -36,57 -309,191 -178,88 -283,146 -330,184 -190,148 -296,369 -325,675 -22,236 14,531 136,1111 95,449 109,546 109,770 1,215 -8,267 -64,389 -46,97 -89,150 -280,346 -97,99 -201,214 -232,255 -137,187 -237,412 -292,664 -30,136 -41,230 -61,499 -30,415 -93,584 -292,780 -150,148 -303,245 -626,396 -426,200 -810,493 -1067,816 -234,294 -434,737 -631,1401 -56,191 -62,224 -38,224 5,0 68,28 140,62 l 131,62 19,-25 c 35,-44 196,-381 309,-644 186,-433 316,-689 448,-880 208,-300 543,-632 842,-834 164,-111 256,-163 600,-343 363,-190 430,-229 564,-329 251,-189 504,-480 597,-685 135,-303 184,-781 161,-1576 -19,-635 -17,-705 34,-956 47,-237 137,-456 304,-737 121,-205 187,-389 196,-550 4,-60 1,-106 -8,-140 -8,-30 -98,-190 -222,-399 -114,-191 -205,-350 -202,-353 24,-24 154,66 261,179 160,170 299,372 373,540 60,137 75,205 70,313 -6,109 -17,133 -155,375 -147,257 -176,312 -238,450 -93,205 -161,421 -197,620 -19,110 -15,363 11,591 80,722 26,1182 -204,1728 -123,291 -216,444 -364,591 -78,78 -141,126 -336,256 -300,201 -561,368 -780,501 -277,168 -325,212 -574,518 -66,83 -144,177 -172,210 -75,88 -202,284 -268,415 -198,389 -369,950 -461,1517 -11,68 -10,74 9,102 29,41 55,104 77,191 15,61 19,110 18,260 0,161 -3,201 -27,310 -36,169 -87,319 -162,477 -114,238 -233,397 -430,575 -449,406 -997,673 -1590,773 -120,20 -456,50 -490,43 -5,-1 -59,-3 -120,-5 z m 295,-218 c 360,-43 701,-141 976,-280 616,-313 1070,-942 1040,-1440 -20,-349 -200,-579 -684,-878 -581,-358 -1372,-656 -2142,-806 -660,-128 -1140,-139 -1718,-40 -703,120 -1148,379 -1282,748 -128,350 81,1053 467,1573 102,136 167,203 316,321 299,236 609,406 1007,550 351,127 801,226 1170,257 69,6 143,12 165,14 92,9 558,-4 685,-19 z"
       id="path2"
       inkscape:connector-curvature="0" />
    <path
       d="m 10890,4615 v -215 h 660 660 v 215 215 h -660 -660 z"
       id="path4"
       inkscape:connector-curvature="0" />
    <path
       d="m 2490,4010 v -480 h -480 -480 v -200 -200 h 480 480 v -480 -480 h 205 205 v 480 480 h 475 475 v 200 200 h -475 -475 v 480 480 h -205 -205 z"
       id="path6"
       inkscape:connector-curvature="0" />
  </g>
</svg>
